<?xml version="1.0" encoding="utf-8"?>
<!-- Generator: Adobe Illustrator 19.1.0, SVG Export Plug-In . SVG Version: 6.00 Build 0)  -->
<svg version="1.1" id="Layer_1" xmlns="http://www.w3.org/2000/svg" xmlns:xlink="http://www.w3.org/1999/xlink" x="0px" y="0px"
	 viewBox="-292 386 22 20" style="enable-background:new -292 386 22 20;" xml:space="preserve">
<style type="text/css">
	.st0{fill:#FF8B60;}
</style>
<path class="st0" d="M-292,406h4v-12h-4V406z M-270,395c0-1.1-0.9-2-2-2h-6.3l1-4.6l0-0.3c0-0.4-0.2-0.8-0.4-1.1l-1.1-1l-6.6,6.6
	c-0.4,0.4-0.6,0.9-0.6,1.4v10c0,1.1,0.9,2,2,2h9c0.8,0,1.5-0.5,1.8-1.2l3-7c0.1-0.2,0.1-0.5,0.1-0.7V395L-270,395L-270,395z"/>
</svg>
